<svg width="1200" height="1200" viewBox="0 0 1200 1200" fill="none" xmlns="http://www.w3.org/2000/svg"><path d="M600 1124.05C542.081 1124.05 486.368 1114.63 434.281 1097.28C452.039 1063.13 479.03 1032.83 509.384 1008.89C563.491 966.208 628.099 939.521 689.676 908.577C799.115 853.586 905.467 778.853 959.587 668.977C1013.17 560.206 1006.39 423.976 942.271 321.062C905.162 261.501 845.359 211.2 775.401 205.693C818.558 215.418 839.535 269.443 827.935 312.134C816.336 354.828 781.872 387.178 746.604 413.887C680.469 463.966 606.47 502.576 531.96 539.053C434.815 586.614 330.472 635.873 274.031 728.142C221.58 813.881 229.122 908.994 259.875 998.646C147.326 902.527 75.9489 759.607 75.9489 599.997C75.9489 310.574 310.577 75.9488 600 75.9488C889.423 75.9488 1124.05 310.574 1124.05 599.997C1124.05 889.423 889.423 1124.05 600 1124.05V1124.05ZM600 1.66793e-05C268.63 1.66793e-05 0 268.627 0 599.997C0 830.701 130.229 1030.95 321.164 1131.36C322.029 1131.81 322.894 1132.28 323.763 1132.73C314.648 1100.43 308.581 1066.92 305.349 1033.41C304.474 1024.34 303.75 1015.28 303.284 1006.24C299.066 924.271 317.368 855.536 374.838 795.031C462.865 702.357 579.905 656.457 692.232 601.806C774.326 561.865 855.952 508.653 896.028 426.624C890.721 453.789 878.214 478.807 863.399 502.196C770.947 648.155 578.42 662.14 460.213 778.463C407.892 829.954 373.776 899.59 365.162 972.491C361.318 1005.01 362.576 1038.09 368.584 1070.28C374.871 1103.96 386.372 1136.67 402.724 1166.77C406.073 1167.93 409.433 1169.07 412.806 1170.17C471.714 1189.5 534.628 1200 600 1200C931.37 1200 1200 931.37 1200 599.997C1200 268.627 931.37 1.66793e-05 600 1.66793e-05" fill="#D1C871"/></svg>