<svg fill="none" height="1200" viewBox="0 0 1201 1200" width="1201" xmlns="http://www.w3.org/2000/svg"><path d="m571.729 364.272c0-22.369 22.365-37.835 43.294-29.94l564.277 212.857c12.45 4.7 20.7 16.625 20.7 29.941v590.87c0 17.67-14.33 32-32 32h-564.271c-17.673 0-32-14.33-32-32z" fill="#2481be"/><path d="m257.593 241.734c0-13.613 8.613-25.736 21.467-30.217l564.272-196.6911c20.799-7.24989 42.533 8.1909 42.533 30.2169v1122.9572c0 17.67-14.327 32-32 32h-564.272c-17.673 0-32-14.33-32-32z" fill="#64b6ec"/><path d="m0 728c0-17.673 14.3269-32 32-32h457.466c17.673 0 32 14.327 32 32v472h-489.466c-17.6731 0-32-14.33-32-32z" fill="#c3deef"/></svg>