<svg fill="none" viewBox="0 0 500 501" xmlns="http://www.w3.org/2000/svg"><path d="m62.0625 329.3c67.6275 119.944 162.6535 194 212.2445 165.408s34.97-149.005-32.659-268.95c-67.628-119.946-162.6521-194.0006-212.2434-165.4085-49.5913 28.5922-34.96969 149.0055 32.6579 268.9505z" fill="#2481be"/><path d="m250 500.844c57.085 0 103.363-111.929 103.363-250s-46.278-249.999762-103.363-249.999762c-57.086 0-103.363 111.928762-103.363 249.999762s46.277 250 103.363 250z" fill="#64b6ec"/><path d="m437.937 329.3c-67.627 119.944-162.653 194-212.244 165.407-49.592-28.592-34.97-149.006 32.659-268.951 67.628-119.945 162.652-193.999 212.243-165.4069s34.97 149.0049-32.658 268.9509z" fill="#c3deef"/></svg>